#!OML:ASF E:\Steps\Project 1\Capture day 1\Session 2\Subject.ASF
:FULLY-SPECIFIED
:DEGREES
48
root 16.5775 19.6851 20.7293 -153.184 -4.37474 177.95
lowerback -29.8447 -2.67259 -6.60184
upperback -0.622158 -1.83228 0.277966
thorax 15.2364 -1.51633 3.09756
lowerneck -5.11386 -0.559214 -1.165
upperneck 14.9973 -2.11737 5.44584
head 5.42053 -1.00463 1.73778
rclavicle 1.18774e-014 -2.18663e-015
rhumerus -40.2603 -19.7715 -76.3477
rradius 34.7436
rwrist -3.95749
rhand -7.72677 -52.1008
rfingers 7.12502
rthumb 18.1717 -81.272
lclavicle 1.18774e-014 -2.18663e-015
lhumerus -31.0297 4.06381 81.265
lradius 24.8278
lwrist -2.70456
lhand -20.777 -12.3882
lfingers 7.12502
lthumb 5.58961 17.5181
rfemur -23.6096 6.7796 20.2982
rtibia 7.81252
rfoot -19.457 -4.64854
rtoes -22.1746
lfemur -24.8164 -6.98966 -22.1813
ltibia 8.91669
lfoot -5.82895 -6.45896
ltoes -16.8465
49
root 16.5814 19.6876 20.7311 -153.273 -4.47577 177.828
lowerback -29.7009 -2.72895 -6.73642
upperback -0.563749 -1.85719 0.290172
thorax 15.2454 -1.53358 3.17841
lowerneck -5.24469 -0.607228 -0.995741
upperneck 15.0581 -2.15014 5.14686
head 5.45915 -1.02412 1.61378
rclavicle 3.47873e-015 -4.37326e-015
rhumerus -40.1345 -19.7721 -76.3274
rradius 34.6784
rwrist -3.89603
rhand -7.665 -51.9926
rfingers 7.12502
rthumb 18.2312 -81.1582
lclavicle 3.47873e-015 -4.37326e-015
lhumerus -30.9287 3.96813 81.3773
lradius 24.8033
lwrist -2.52073
lhand -20.8192 -12.5636
lfingers 7.12502
lthumb 5.54893 17.3438
rfemur -23.4749 6.85098 20.1726
rtibia 7.78709
rfoot -19.4412 -4.83956
rtoes -21.4781
lfemur -24.752 -7.05986 -22.2931
ltibia 8.98359
lfoot -5.59378 -6.47582
ltoes -14.9544
50
root 16.5847 19.6886 20.7347 -153.259 -4.53772 177.806
lowerback -29.6726 -2.69903 -6.73844
upperback -0.550522 -1.81467 0.284305
thorax 15.2434 -1.51372 3.19152
lowerneck -5.14802 -0.52046 -1.13082
upperneck 15.4292 -2.08571 5.2177
head 5.55712 -1.00686 1.66271
rclavicle -6.85807e-015 -3.02153e-014
rhumerus -40.1557 -19.8292 -76.308
rradius 34.69
rwrist -3.69411
rhand -7.48171 -51.774
rfingers 7.12502
rthumb 18.4075 -80.923
lclavicle -6.85807e-015 -3.02153e-014
lhumerus -30.926 3.72955 81.5035
lradius 24.9074
lwrist -2.22458
lhand -20.8811 -12.3908
lfingers 7.12502
lthumb 5.48916 17.5181
rfemur -23.5121 6.92246 20.1487
rtibia 7.80926
rfoot -19.4395 -4.94255
rtoes -21.4448
lfemur -24.8325 -7.09626 -22.2807
ltibia 9.08296
lfoot -5.90941 -6.50992
ltoes -18.2722
51
root 16.588 19.6882 20.7384 -153.208 -4.55792 177.783
lowerback -29.6513 -2.6135 -6.68128
upperback -0.57209 -1.71385 0.188243
thorax 15.1918 -1.46168 3.09677
lowerneck -4.66409 -0.359029 -1.41123
upperneck 15.2966 -1.92469 5.68996
head 5.43203 -0.932463 1.86841
rclavicle 7.10655e-015 2.18663e-015
rhumerus -40.242 -19.9051 -76.4047
rradius 34.702
rwrist -3.62717
rhand -7.38341 -51.9829
rfingers 7.12502
rthumb 18.502 -81.123
lclavicle 7.10655e-015 2.18663e-015
lhumerus -31.0092 3.39678 81.5162
lradius 25.1051
lwrist -2.04265
lhand -21.0665 -12.2363
lfingers 7.12502
lthumb 5.31015 17.6772
rfemur -23.6197 6.84561 20.1611
rtibia 7.87203
rfoot -20.5681 -4.97286
rtoes -20.128
lfemur -24.9288 -7.12084 -22.2775
ltibia 9.12034
lfoot -6.14315 -6.55996
ltoes -20.2714
52
root 16.5919 19.6891 20.7424 -153.26 -4.67967 177.741
lowerback -29.6147 -2.63848 -6.73907
upperback -0.475494 -1.71238 0.202944
thorax 15.291 -1.4639 3.14648
lowerneck -4.71499 -0.24037 -1.44466
upperneck 15.3904 -1.76772 5.6988
head 5.46403 -0.856033 1.8866
rclavicle 3.57812e-015 0
rhumerus -40.0381 -19.9228 -76.4114
rradius 34.6045
rwrist -3.72117
rhand -7.42141 -52.2167
rfingers 7.12502
rthumb 18.4655 -81.3603
lclavicle 3.57812e-015 0
lhumerus -30.9329 3.33729 81.5895
lradius 25.2449
lwrist -2.03528
lhand -21.2478 -12.2269
lfingers 7.12502
lthumb 5.13513 17.6909
rfemur -23.571 6.77057 20.1862
rtibia 7.90667
rfoot -20.1851 -5.21657
rtoes -21.8996
lfemur -24.9113 -7.23147 -22.2687
ltibia 9.15733
lfoot -5.81309 -6.58434
ltoes -16.7086
53
root 16.5954 19.6887 20.7497 -153.211 -4.8368 177.764
lowerback -29.5653 -2.65142 -6.67037
upperback -0.49236 -1.76092 0.233597
thorax 15.254 -1.47982 3.12486
lowerneck -4.79094 -0.227839 -1.26506
upperneck 15.6652 -1.75905 5.43109
head 5.55958 -0.860415 1.77353
rclavicle -5.91384e-015 2.52457e-014
rhumerus -40.027 -19.8654 -76.3813
rradius 34.5798
rwrist -3.75154
rhand -7.42435 -51.4622
rfingers 7.12502
rthumb 18.4627 -80.6061
lclavicle -5.91384e-015 2.52457e-014
lhumerus -31.0011 3.40541 81.6159
lradius 25.3482
lwrist -2.06289
lhand -21.3685 -11.967
lfingers 7.12502
lthumb 5.01853 17.9535
rfemur -23.7065 6.65828 20.2603
rtibia 8.04909
rfoot -19.6772 -5.19452
rtoes -22.2774
lfemur -25.0814 -7.35485 -22.1669
ltibia 9.29465
lfoot -5.52121 -6.5841
ltoes -13.3467
54
root 16.6001 19.6875 20.7558 -153.108 -4.95662 177.814
lowerback -29.564 -2.62706 -6.60877
upperback -0.540392 -1.76216 0.270053
thorax 15.1974 -1.47682 3.13111
lowerneck -4.88431 -0.451023 -0.98368
upperneck 16.1761 -2.11102 5.08189
head 5.74316 -1.04686 1.59418
rclavicle -1.00883e-014 -1.8487e-014
rhumerus -40.1821 -19.6944 -76.3886
rradius 34.7542
rwrist -3.80847
rhand -7.35959 -50.6663
rfingers 7.12502
rthumb 18.525 -79.8042
lclavicle -1.00883e-014 -1.8487e-014
lhumerus -31.1238 3.44796 81.652
lradius 25.4933
lwrist -2.16272
lhand -21.3315 -11.9975
lfingers 7.12502
lthumb 5.05431 17.9222
rfemur -23.9331 6.4691 20.3766
rtibia 8.23098
rfoot -20.1622 -4.96727
rtoes -20.2138
lfemur -25.2975 -7.37149 -22.0462
ltibia 9.39973
lfoot -5.74857 -6.68202
ltoes -16.032
55
root 16.6056 19.6887 20.7577 -153.165 -5.08783 177.834
lowerback -29.4473 -2.59798 -6.6148
upperback -0.517072 -1.72394 0.286846
thorax 15.1683 -1.45755 3.17231
lowerneck -4.92605 -0.600089 -0.794937
upperneck 16.523 -2.34717 4.84359
head 5.86308 -1.17295 1.47157
rclavicle -1.5704e-014 -4.77083e-015
rhumerus -40.4031 -19.4505 -76.4649
rradius 35.0968
rwrist -3.99606
rhand -7.44997 -50.7275
rfingers 7.12502
rthumb 18.438 -79.8737
lclavicle -1.5704e-014 -4.77083e-015
lhumerus -31.1592 3.20403 81.737
lradius 25.6491
lwrist -2.05495
lhand -21.2082 -12.224
lfingers 7.12502
lthumb 5.17336 17.6929
rfemur -23.8623 6.38786 20.4652
rtibia 8.22081
rfoot -20.8054 -4.98084
rtoes -19.0148
lfemur -25.2563 -7.40515 -21.9679
ltibia 9.40909
lfoot -6.03012 -6.74587
ltoes -19.1045
56
root 16.609 19.6879 20.7586 -153.257 -5.15188 177.822
lowerback -29.4166 -2.56873 -6.62533
upperback -0.389293 -1.66017 0.287722
thorax 15.2992 -1.42841 3.20674
lowerneck -4.79687 -0.379405 -0.923177
upperneck 16.4181 -2.03372 4.94987
head 5.79961 -1.02151 1.54777
rclavicle 1.68967e-014 1.78906e-015
rhumerus -40.4034 -19.3525 -76.5549
rradius 35.3021
rwrist -4.13756
rhand -7.63514 -50.6299
rfingers 7.12502
rthumb 18.2599 -79.7928
lclavicle 1.68967e-014 1.78906e-015
lhumerus -31.0299 2.98634 81.8454
lradius 25.7626
lwrist -1.9433
lhand -21.2612 -12.2788
lfingers 7.12502
lthumb 5.12211 17.6393
rfemur -23.7235 6.34917 20.4913
rtibia 8.13926
rfoot -20.49 -5.06593
rtoes -20.5918
lfemur -25.157 -7.44618 -21.9647
ltibia 9.41522
lfoot -5.81176 -6.73077
ltoes -16.2583
57
root 16.6118 19.6867 20.7617 -153.32 -5.16516 177.772
lowerback -29.3057 -2.55146 -6.66102
upperback -0.343316 -1.62239 0.290163
thorax 15.2991 -1.41157 3.24775
lowerneck -4.53815 -0.0528416 -1.12181
upperneck 16.2442 -1.56608 5.07297
head 5.68655 -0.800731 1.65021
rclavicle -5.86415e-015 1.74931e-014
rhumerus -40.3409 -19.362 -76.538
rradius 35.2748
rwrist -4.18805
rhand -7.78768 -50.6879
rfingers 7.12502
rthumb 18.1131 -79.8646
lclavicle -5.86415e-015 1.74931e-014
lhumerus -31.0687 3.10097 81.8724
lradius 25.879
lwrist -2.09856
lhand -21.3831 -12.4121
lfingers 7.12502
lthumb 5.00447 17.5088
rfemur -23.757 6.43877 20.4184
rtibia 8.31789
rfoot -20.0138 -5.17377
rtoes -21.2208
lfemur -25.1218 -7.437 -22.03
ltibia 9.46007
lfoot -5.51945 -6.76677
ltoes -12.5303
58
root 16.6157 19.6873 20.7655 -153.374 -5.19832 177.71
lowerback -29.1963 -2.53948 -6.69063
upperback -0.295396 -1.59103 0.274385
thorax 15.3016 -1.39666 3.26272
lowerneck -4.47468 0.0208273 -1.18617
upperneck 16.3711 -1.4825 5.09158
head 5.71258 -0.767686 1.67226
rclavicle 4.72114e-015 1.35174e-014
rhumerus -40.2264 -19.5141 -76.4643
rradius 35.14
rwrist -4.10695
rhand -7.86272 -50.6715
rfingers 7.12502
rthumb 18.0409 -79.8548
lclavicle 4.72114e-015 1.35174e-014
lhumerus -31.0288 3.24291 81.8488
lradius 25.9131
lwrist -2.2873
lhand -21.4332 -12.5755
lfingers 7.12502
lthumb 4.95606 17.3466
rfemur -23.9665 6.46146 20.3504
rtibia 8.83345
rfoot -20.0891 -5.18982
rtoes -20.0348
lfemur -25.1176 -7.45906 -22.0981
ltibia 9.54369
lfoot -5.52615 -6.80698
ltoes -12.7214
